<svg xmlns="http://www.w3.org/2000/svg" xmlns:xlink="http://www.w3.org/1999/xlink" version="1.1" baseProfile="full" viewBox="0 0 200 200" width="200" height="200">
<g fill="black">
<path d="M 42.3 152.9 L 44.6 159.1 L 46.1 166.0 L 46.9 173.4 L 46.9 181.4 L 44.8 185.5 L 40.5 186.9 L 36.4 184.8 L 34.9 180.5 L 35.5 173.5 L 35.4 167.2 L 34.8 161.4 L 33.6 156.3 L 31.9 151.6 L 29.6 147.4 L 26.6 143.7 L 23.0 140.2 L 18.7 137.0 L 13.5 134.1 L 14.0 132.4 L 20.2 133.5 L 25.9 135.7 L 31.0 138.7 L 33.21799163818359 140.67154808044432 L 34.1 138.7 L 36.3 133.4 L 39.1 126.8 L 42.4 118.8 L 46.2 109.3 L 50.6 98.4 L 55.6 86.2 L 61.3 72.6 L 67.8 57.6 L 69.4 58.3 L 64.9 73.9 L 60.7 88.0 L 56.8 100.7 L 53.3 111.8 L 50.4 121.6 L 47.8 129.9 L 45.8 136.8 L 44.2 142.2 L 43.2 146.2 L 42.7 148.7 L 41.67931032180786 151.76206893920897 Z M 63.1 174.0 L 119.5 174.0 L 119.5 140.0 L 72.5 140.0 L 72.5 136.0 L 119.5 136.0 L 119.5 104.0 L 66.7 104.0 L 66.7 100.0 L 119.5 100.0 L 119.5 63.2 L 87.8 63.2 L 79.8 71.2 L 69.8 61.2 L 75.8 55.2 L 75.8 23.8 L 87.8 25.8 L 90.8 27.8 L 87.8 29.6 L 87.8 59.2 L 119.5 59.2 L 119.5 14.0 L 131.5 16.0 L 134.5 18.0 L 131.5 19.8 L 131.5 59.2 L 164.5 59.2 L 164.5 23.8 L 176.5 25.8 L 179.5 27.8 L 176.5 29.6 L 176.5 69.2 L 164.5 75.2 L 164.5 63.2 L 131.5 63.2 L 131.5 100.0 L 162.2 100.0 L 172.2 90.0 L 184.2 100.0 L 184.2 104.0 L 131.5 104.0 L 131.5 136.0 L 156.4 136.0 L 166.4 126.0 L 178.4 136.0 L 178.4 140.0 L 131.5 140.0 L 131.5 174.0 L 165.8 174.0 L 175.8 164.0 L 187.8 174.0 L 187.8 178.0 L 63.1 178.0 Z M 31.2 85.5 L 29.8 83.4 L 28.1 81.4 L 26.2 79.3 L 23.9 77.2 L 21.3 75.2 L 18.5 73.1 L 15.4 70.9 L 11.9 69.1 L 12.5 67.4 L 16.4 68.4 L 20.3 69.2 L 23.9 70.3 L 27.3 71.5 L 30.5 73.0 L 33.5 74.6 L 36.4 76.5 L 39.0 78.5 L 41.3 80.8 L 43.5 83.3 L 44.1 87.8 L 41.5 91.5 L 37.0 92.2 L 33.2 89.5 L 32.4 87.5 Z M 47.0 37.8 L 45.7 35.8 L 44.1 33.8 L 42.2 31.8 L 40.0 29.7 L 37.5 27.5 L 34.7 25.4 L 31.6 23.1 L 28.1 21.2 L 28.8 19.5 L 32.7 20.6 L 36.6 21.6 L 40.1 22.7 L 43.5 24.1 L 46.6 25.5 L 49.6 27.1 L 52.3 28.9 L 54.8 30.9 L 57.0 33.0 L 59.0 35.3 L 59.6 39.8 L 57.0 43.5 L 52.4 44.1 L 48.7 41.4 L 48.0 39.7 Z " />
</g>
</svg>
