<svg xmlns="http://www.w3.org/2000/svg" xmlns:xlink="http://www.w3.org/1999/xlink" version="1.1" baseProfile="full" viewBox="0 0 200 200" width="200" height="200">
<g fill="black">
<path d="M 35.0 24.0 L 77.0 24.0 L 83.0 19.0 L 94.0 28.0 L 89.0 32.0 L 89.0 71.0 L 77.0 77.0 L 77.0 71.0 L 35.0 71.0 L 35.0 183.0 L 23.0 189.0 L 23.0 18.0 Z M 141.0 176.0 L 161.0 176.0 L 162.2 175.9 L 163.1 175.7 L 164.0 175.4 L 164.4 175.0 L 164.7 174.1 L 164.9 173.2 L 165.0 172.0 L 165.0 71.0 L 123.0 71.0 L 123.0 83.0 L 111.0 89.0 L 111.0 84.83157892227173 L 109.45225372314454 85.07595996856689 L 106.4 91.7 L 102.0360824584961 100.0 L 118.2 100.0 L 124.2 95.0 L 135.2 104.0 L 130.2 107.0 L 128.2219712257385 107.82417860031128 L 125.74692735671997 118.9 L 128.2 118.9 L 134.2 113.9 L 145.2 122.9 L 140.2 125.9 L 138.33223819732666 126.6782341003418 L 135.84692735671996 137.8 L 138.3 137.8 L 144.3 132.8 L 155.3 141.8 L 150.3 144.8 L 149.98383235931396 144.93173656463622 L 149.7 149.0 L 149.3 152.9 L 148.9 156.4 L 148.4 159.7 L 147.8 162.6 L 147.2 165.2 L 146.5 167.6 L 145.6 169.7 L 144.3 171.8 L 142.8 173.7 L 141.1 175.5 L 139.3 177.1 L 137.4 178.5 L 135.3 179.7 L 133.1 180.6 L 130.8 181.4 L 128.5 181.9 L 126.1 182.2 L 123.6 182.3 L 123.6 176.3 L 103.6 173.3 L 103.6 170.3 L 125.1 170.3 L 126.4 170.1 L 127.6 169.8 L 128.8 169.4 L 129.9 169.0 L 130.9 168.4 L 131.9 167.7 L 133.7 165.9 L 134.6 164.7 L 134.8 164.4 L 135.2 163.5 L 135.6 162.0 L 136.1 160.1 L 136.6 157.7 L 137.0 154.8 L 137.4 151.6 L 137.7 147.9 L 138.0 143.9 L 138.13999996185302 141.8 L 69.90142860412598 141.8 L 69.8 141.9 L 62.3 148.2 L 54.3 153.9 L 45.9 158.8 L 44.9 157.3 L 52.0 150.9 L 58.7 144.2 L 65.1 137.3 L 71.2 129.9 L 76.9 122.2 L 82.2 114.1 L 87.2 105.5 L 87.96666669845581 104.0 L 49.8 104.0 L 49.8 100.0 L 90.01111106872558 100.0 L 91.8 96.5 L 96.1 87.0 L 99.9 77.1 L 99.95874128341674 77.12307691574097 L 100.5 75.8 L 111.0 81.44622640609741 L 111.0 18.0 L 123.0 24.0 L 165.0 24.0 L 171.0 19.0 L 182.0 28.0 L 177.0 32.0 L 177.0 172.0 L 176.8 174.5 L 176.4 177.0 L 175.6 179.4 L 174.3 181.7 L 172.7 183.7 L 170.7 185.3 L 168.4 186.6 L 166.0 187.4 L 163.5 187.8 L 161.0 188.0 L 161.0 182.0 L 141.0 179.0 Z M 51.8 176.3 L 50.8 171.8 L 53.2 167.9 L 54.3 167.6 L 55.4 167.0 L 56.6 166.2 L 57.8 165.0 L 58.9 163.4 L 60.1 161.6 L 61.1 159.3 L 62.1 156.8 L 63.1 153.9 L 63.4 150.8 L 65.2 150.8 L 65.4 154.1 L 65.9 157.2 L 66.1 160.2 L 66.1 163.1 L 65.9 165.8 L 65.3 168.5 L 64.5 171.0 L 63.4 173.4 L 61.9 175.7 L 60.1 177.7 L 55.7 178.7 Z M 96.9 162.4 L 97.0 161.1 L 96.9 159.7 L 96.7 158.3 L 96.3 156.7 L 95.1 153.3 L 94.2 151.4 L 92.8 149.9 L 94.0 148.6 L 95.7 149.9 L 97.6 150.9 L 99.5 152.0 L 101.1 153.2 L 102.7 154.6 L 104.1 156.1 L 105.4 157.6 L 106.6 159.4 L 107.5 161.2 L 108.3 163.2 L 107.0 167.6 L 103.1 169.9 L 98.7 168.6 L 96.4 164.6 L 96.7 163.5 Z M 80.6 173.9 L 76.9 171.2 L 76.2 166.7 L 76.8 165.8 L 77.4 164.7 L 77.8 163.5 L 78.2 162.2 L 78.5 160.7 L 78.6 159.0 L 78.6 157.2 L 78.4 155.2 L 78.2 153.1 L 77.3 151.1 L 78.8 150.2 L 80.1 152.1 L 81.7 153.7 L 83.1 155.4 L 84.3 157.2 L 85.4 159.1 L 86.3 161.0 L 87.0 163.0 L 87.5 165.1 L 87.8 167.3 L 87.8 169.5 L 85.1 173.2 Z M 117.4 159.2 L 117.2 158.0 L 116.7 156.7 L 116.1 155.3 L 115.4 153.8 L 114.4 152.3 L 113.3 150.8 L 111.9 149.2 L 110.2 148.1 L 111.0 146.5 L 113.0 147.4 L 115.1 147.8 L 117.2 148.5 L 119.2 149.2 L 121.1 150.2 L 122.8 151.3 L 124.5 152.5 L 126.0 153.9 L 127.4 155.5 L 128.7 157.2 L 128.5 161.8 L 125.2 165.0 L 120.6 164.8 L 117.5 161.5 L 117.5 160.4 Z M 87.1 122.9 L 83.6 127.4 L 76.9 134.9 L 73.958571434021 137.8 L 123.52910051345825 137.8 L 127.47089948654175 122.9 Z M 99.7456521987915 104.0 L 95.8 110.6 L 90.17126436233521 118.9 L 113.42910051345825 118.9 L 117.37089948654175 104.0 Z M 71.1 92.6 L 70.1 89.4 L 69.3 87.8 L 68.4 86.1 L 67.3 84.3 L 66.1 82.5 L 64.7 80.6 L 62.8 79.1 L 63.7 77.6 L 65.9 78.8 L 68.3 79.6 L 70.5 80.5 L 72.6 81.7 L 74.6 82.9 L 76.5 84.3 L 78.2 85.8 L 79.8 87.4 L 81.3 89.2 L 82.6 91.1 L 82.5 95.7 L 79.3 98.9 L 74.7 98.7 L 71.5 95.5 L 71.3 94.1 Z M 123.0 49.0 L 123.0 67.0 L 165.0 67.0 L 165.0 49.0 Z M 35.0 49.0 L 35.0 67.0 L 77.0 67.0 L 77.0 49.0 Z M 123.0 28.0 L 123.0 45.0 L 165.0 45.0 L 165.0 28.0 Z M 35.0 28.0 L 35.0 45.0 L 77.0 45.0 L 77.0 28.0 Z " />
</g>
</svg>
