<svg xmlns="http://www.w3.org/2000/svg" xmlns:xlink="http://www.w3.org/1999/xlink" version="1.1" baseProfile="full" viewBox="0 0 200 200" width="200" height="200">
<g fill="black">
<path d="M 173.0 75.0 L 185.0 85.0 L 185.0 89.0 L 138.4 89.0 L 138.4 114.0 L 155.2 114.0 L 165.2 104.0 L 177.2 114.0 L 177.2 118.0 L 138.4 118.0 L 138.4 141.0 L 155.2 141.0 L 165.2 131.0 L 177.2 141.0 L 177.2 145.0 L 138.4 145.0 L 138.4 172.0 L 166.4 172.0 L 176.4 162.0 L 188.4 172.0 L 188.4 176.0 L 92.5 176.0 L 92.5 183.0 L 80.5 189.0 L 80.5 101.22692308425903 L 75.4 107.7 L 69.8 114.5 L 63.6 121.4 L 56.9 128.5 L 55.5 127.4 L 60.6 119.1 L 65.4 111.3 L 70.0 103.9 L 74.4 96.8 L 78.3 90.1 L 80.5 86.2945945739746 L 80.5 85.0 L 81.2484375 85.0 L 82.0 83.7 L 85.3 77.6 L 88.2 71.8 L 90.7 66.4 L 92.5101390838623 62.20376853942871 L 92.5 62.2 L 92.625 61.9375 L 92.9 61.3 L 92.92336549758912 61.31093244552612 L 93.5 60.1 L 103.8 66.4 L 105.6 69.5 L 101.85510206222534 69.88740320205689 L 100.9 71.6 L 97.6 77.1 L 93.9 82.7 L 92.30169486999512 85.0 L 163.0 85.0 Z M 34.4 144.1 L 36.7 149.8 L 38.4 155.7 L 39.5 161.8 L 40.0 168.2 L 39.9 174.7 L 37.6 178.6 L 33.2 179.9 L 29.2 177.7 L 27.9 173.3 L 28.6 167.9 L 28.8 162.6 L 28.5 157.4 L 27.8 152.3 L 26.5 147.2 L 24.7 142.1 L 22.4 137.0 L 19.6 131.9 L 16.3 126.6 L 12.5 121.3 L 13.8 120.0 L 19.1 124.1 L 23.9 128.6 L 25.56820878982544 130.5937129020691 L 26.8 128.9 L 30.2 123.8 L 33.9 117.8 L 37.9 111.2 L 42.2 103.7 L 46.7 95.5 L 51.6 86.6 L 56.7 76.9 L 62.3 66.6 L 68.2 55.6 L 69.9 56.3 L 65.7 68.2 L 61.6 79.2 L 57.5 89.4 L 53.6 98.8 L 49.8 107.5 L 46.2 115.5 L 42.8 122.7 L 39.5 129.1 L 36.5 134.9 L 33.6 140.0 L 32.80976362228394 141.1388701438904 Z M 92.5 145.0 L 92.5 172.0 L 126.4 172.0 L 126.4 145.0 Z M 92.5 118.0 L 92.5 141.0 L 126.4 141.0 L 126.4 118.0 Z M 92.5 89.0 L 92.5 114.0 L 126.4 114.0 L 126.4 89.0 Z M 131.5 76.9 L 130.8 75.2 L 129.9 73.4 L 128.8 71.5 L 127.5 69.6 L 126.1 67.5 L 124.4 65.4 L 122.7 63.1 L 120.4 61.3 L 121.4 59.8 L 124.0 61.2 L 126.8 62.4 L 129.3 63.6 L 131.8 64.9 L 134.0 66.3 L 136.1 67.8 L 138.1 69.3 L 139.9 71.0 L 141.6 72.7 L 143.1 74.6 L 143.4 79.1 L 140.5 82.6 L 135.9 82.9 L 132.4 80.0 L 132.1 78.5 Z M 81.9 65.8 L 71.9 55.8 L 77.9 49.8 L 77.9 25.1 L 89.9 27.1 L 92.9 29.1 L 89.9 30.9 L 89.9 53.8 L 123.0 53.8 L 123.0 14.3 L 135.0 16.3 L 138.0 18.3 L 135.0 20.1 L 135.0 53.8 L 167.4 53.8 L 167.4 25.1 L 179.4 27.1 L 182.4 29.1 L 179.4 30.9 L 179.4 61.8 L 167.4 67.8 L 167.4 57.8 L 89.9 57.8 Z M 39.0 52.8 L 37.6 50.3 L 35.9 47.8 L 34.0 45.3 L 31.8 42.8 L 29.4 40.4 L 26.8 37.9 L 23.9 35.4 L 20.6 33.2 L 21.4 31.6 L 29.0 34.2 L 32.6 35.7 L 36.0 37.5 L 39.2 39.5 L 42.1 41.7 L 44.9 44.1 L 47.5 46.7 L 49.8 49.5 L 51.9 52.6 L 52.2 57.1 L 49.3 60.6 L 44.7 60.9 L 41.2 58.0 L 40.2 55.4 Z " />
</g>
</svg>
