<svg xmlns="http://www.w3.org/2000/svg" xmlns:xlink="http://www.w3.org/1999/xlink" version="1.1" baseProfile="full" viewBox="0 0 200 200" width="200" height="200">
<g fill="black">
<path d="M 81.2 158.5 L 80.5 154.5 L 79.6 150.6 L 79.17260274887084 149.28493146896363 L 75.7 151.6 L 69.9 155.2 L 63.8 158.6 L 57.6 161.8 L 44.8 167.8 L 38.2 170.6 L 31.4 173.3 L 24.6 175.9 L 21.521388149261476 177.01543912887573 L 20.4 180.7 L 17.7 178.4 L 12.2 167.5 L 14.2 166.9 L 21.1 165.1 L 28.0 163.1 L 34.8 161.1 L 41.5 159.1 L 48.0 156.9333333015442 L 48.0 112.0 L 31.0 112.0 L 31.0 124.0 L 19.0 130.0 L 19.0 47.0 L 31.0 53.0 L 48.0 53.0 L 48.0 13.0 L 60.0 15.0 L 63.0 17.0 L 60.0 18.8 L 60.0 53.0 L 77.0 53.0 L 83.0 48.0 L 94.0 57.0 L 89.0 61.0 L 89.0 114.0 L 77.0 120.0 L 77.0 112.0 L 60.0 112.0 L 60.0 153.00615386962892 L 61.2 152.6 L 67.6 150.3 L 74.1 148.2 L 78.3651605606079 146.80049419403076 L 78.3 146.6 L 76.8 142.7 L 75.0 138.7 L 72.9 134.6 L 70.6 130.5 L 68.0 126.3 L 69.3 125.1 L 73.3 128.3 L 76.9 131.6 L 80.2 135.3 L 83.2 139.1 L 85.8 143.1 L 88.1 147.3 L 90.0 151.6 L 91.6 156.1 L 92.8 160.7 L 93.7 165.5 L 92.2 169.8 L 88.2 171.9 L 83.9 170.5 L 81.7 166.4 L 81.6 162.5 Z M 165.9 91.1 L 164.4 93.1 L 162.7 94.9 L 160.8 96.5 L 158.7 97.8 L 156.4 98.8 L 154.0 99.4 L 151.5 99.8 L 149.0 100.0 L 149.0 94.0 L 137.0 91.0 L 137.0 88.0 L 149.0 88.0 L 150.3 87.9 L 151.5 87.7 L 152.4 87.4 L 153.2 87.1 L 153.9 86.7 L 154.5 86.2 L 155.1 85.5 L 155.7 84.7 L 156.2 83.7 L 156.7 82.5 L 157.2 80.9 L 157.7 78.5 L 158.2 75.5 L 158.6 71.9 L 159.0 67.7 L 159.3 62.8 L 159.5 57.5 L 159.7 51.5 L 159.8 45.0 L 159.8 40.0 L 113.3 40.0 L 113.3 110.0 L 172.5 110.0 L 178.5 105.0 L 189.5 114.0 L 184.55118112564088 116.96929130554199 L 184.6 121.9 L 184.5 131.2 L 184.3 139.6 L 183.9 147.3 L 183.3 154.1 L 182.5 160.2 L 181.5 165.5 L 180.3 170.1 L 178.7 174.1 L 176.6 177.6 L 175.1 179.5 L 173.4 181.2 L 171.6 182.8 L 169.6 184.2 L 167.5 185.3 L 165.3 186.3 L 163.0 187.0 L 160.7 187.5 L 158.3 187.8 L 155.8 188.0 L 155.8 182.0 L 135.8 179.0 L 135.8 176.0 L 155.8 176.0 L 157.3 175.9 L 158.6 175.7 L 159.9 175.4 L 161.1 175.1 L 162.2 174.6 L 163.2 174.0 L 164.2 173.3 L 165.2 172.5 L 166.2 171.5 L 167.1 170.4 L 167.9 169.0 L 168.9 166.5 L 169.8 162.9 L 170.7 158.3 L 171.4 152.8 L 171.9 146.4 L 172.3 139.1 L 172.5 131.0 L 172.59935598373414 121.95860166549683 L 172.5 122.0 L 172.5 114.0 L 113.3 114.0 L 105.3 122.0 L 95.3 112.0 L 101.3 106.0 L 101.3 30.0 L 113.3 36.0 L 126.79230766296386 36.0 L 127.3 34.9 L 128.1 32.2 L 129.0 29.6 L 130.6 24.6 L 132.0 20.0 L 132.6 17.7 L 133.1 15.5 L 133.37139549255372 14.36013879776001 L 133.2 14.3 L 133.5714285850525 13.519999980926514 L 133.6 13.4 L 133.62357139587402 13.410499954223633 L 134.2 12.2 L 144.6 18.3 L 146.5 21.3 L 142.0064646720886 21.9197979927063 L 141.8 22.2 L 140.3 24.2 L 138.7 26.2 L 135.3 30.2 L 131.5 34.2 L 129.61000003814698 36.0 L 159.8 36.0 L 165.8 31.0 L 176.8 40.0 L 171.8 43.0 L 171.8 45.1 L 171.7 51.8 L 171.5 57.9 L 171.3 63.5 L 170.9 68.5 L 170.6 73.1 L 170.1 77.1 L 169.5 80.7 L 168.9 83.8 L 168.0 86.6 L 167.1 88.9 Z M 161.0 144.0 L 161.0 148.0 L 90.8 148.0 L 90.8 144.0 L 139.0 144.0 L 149.0 134.0 Z M 31.0 57.0 L 31.0 108.0 L 48.0 108.0 L 48.0 57.0 Z M 60.0 57.0 L 60.0 108.0 L 77.0 108.0 L 77.0 57.0 Z M 137.4 68.9 L 136.4 66.7 L 135.1 64.5 L 133.6 62.2 L 131.7 59.9 L 129.6 57.5 L 127.1 55.1 L 124.4 52.6 L 121.2 50.5 L 122.0 48.9 L 125.7 50.3 L 129.3 51.5 L 132.7 53.0 L 135.9 54.7 L 138.8 56.6 L 141.5 58.7 L 144.0 61.0 L 146.2 63.5 L 148.1 66.2 L 149.8 69.1 L 149.6 73.6 L 146.2 76.8 L 141.7 76.5 L 138.5 73.2 L 138.1 71.1 Z " />
</g>
</svg>
